<?xml version="1.0" encoding="UTF-8" standalone="no"?>
<!DOCTYPE svg PUBLIC "-//W3C//DTD SVG 1.1//EN"
 "http://www.w3.org/Graphics/SVG/1.1/DTD/svg11.dtd">
<!-- Generated by graphviz version 2.38.0 (20140413.2041)
 -->
<!-- Title: g Pages: 1 -->
<svg width="418pt" height="148pt"
 viewBox="0.00 0.00 418.00 148.00" xmlns="http://www.w3.org/2000/svg" xmlns:xlink="http://www.w3.org/1999/xlink">
<g id="graph0" class="graph" transform="scale(1 1) rotate(0) translate(4 144)">
<title>g</title>
<polygon fill="none" stroke="none" points="-4,4 -4,-144 414,-144 414,4 -4,4"/>
<text text-anchor="middle" x="205" y="-118.4" font-family="Times,serif" font-size="22.00">API functions</text>
<!-- s1 -->
<g id="node1" class="node"><title>s1</title>
<polygon fill="#ffffaa" stroke="black" points="90.5,-108 8.5,-108 8.5,-72 90.5,-72 90.5,-108"/>
<text text-anchor="middle" x="49.5" y="-86.3" font-family="Times,serif" font-size="14.00">authenticate</text>
</g>
<!-- s5 -->
<g id="node5" class="node"><title>s5</title>
<polygon fill="#ffffaa" stroke="black" points="99,-36 0,-36 0,-0 99,-0 99,-36"/>
<text text-anchor="middle" x="49.5" y="-14.3" font-family="Times,serif" font-size="14.00">getPermissions</text>
</g>
<!-- s1&#45;&gt;s5 -->
<!-- s2 -->
<g id="node2" class="node"><title>s2</title>
<polygon fill="#ffffaa" stroke="black" points="194.5,-108 126.5,-108 126.5,-72 194.5,-72 194.5,-108"/>
<text text-anchor="middle" x="160.5" y="-86.3" font-family="Times,serif" font-size="14.00">getToken</text>
</g>
<!-- s6 -->
<g id="node6" class="node"><title>s6</title>
<polygon fill="#ffffaa" stroke="black" points="204,-36 117,-36 117,-0 204,-0 204,-36"/>
<text text-anchor="middle" x="160.5" y="-14.3" font-family="Times,serif" font-size="14.00">getAttributes</text>
</g>
<!-- s2&#45;&gt;s6 -->
<!-- s3 -->
<g id="node3" class="node"><title>s3</title>
<polygon fill="#ffffaa" stroke="black" points="302.5,-108 212.5,-108 212.5,-72 302.5,-72 302.5,-108"/>
<text text-anchor="middle" x="257.5" y="-86.3" font-family="Times,serif" font-size="14.00">isValidToken</text>
</g>
<!-- s4 -->
<g id="node4" class="node"><title>s4</title>
<polygon fill="#ffffaa" stroke="black" points="410,-108 321,-108 321,-72 410,-72 410,-108"/>
<text text-anchor="middle" x="365.5" y="-86.3" font-family="Times,serif" font-size="14.00">releaseToken</text>
</g>
</g>
</svg>
