<?xml version="1.0" encoding="UTF-8" standalone="no"?>
<!DOCTYPE svg PUBLIC "-//W3C//DTD SVG 1.1//EN"
 "http://www.w3.org/Graphics/SVG/1.1/DTD/svg11.dtd">
<!-- Generated by graphviz version 2.38.0 (20140413.2041)
 -->
<!-- Title: g Pages: 1 -->
<svg width="329pt" height="109pt"
 viewBox="0.00 0.00 329.00 108.89" xmlns="http://www.w3.org/2000/svg" xmlns:xlink="http://www.w3.org/1999/xlink">
<g id="graph0" class="graph" transform="scale(1 1) rotate(0) translate(4 104.894)">
<title>g</title>
<polygon fill="none" stroke="none" points="-4,4 -4,-104.894 325,-104.894 325,4 -4,4"/>
<text text-anchor="middle" x="160.5" y="-79.2939" font-family="Times,serif" font-size="22.00">Simple Credentials Authentication</text>
<!-- web_app -->
<g id="node1" class="node"><title>web_app</title>
<polygon fill="white" stroke="black" points="103.553,-52.4469 33.5531,-52.4469 33.5531,-16.4469 103.553,-16.4469 103.553,-52.4469"/>
<text text-anchor="middle" x="68.5531" y="-30.7469" font-family="Times,serif" font-size="14.00">Web App</text>
</g>
<!-- atlas -->
<g id="node2" class="node"><title>atlas</title>
<ellipse fill="white" stroke="black" cx="253" cy="-34.4469" rx="34.394" ry="34.394"/>
<text text-anchor="middle" x="253" y="-30.7469" font-family="Times,serif" font-size="14.00">Credio</text>
</g>
<!-- web_app&#45;&gt;atlas -->
<g id="edge1" class="edge"><title>web_app&#45;&gt;atlas</title>
<path fill="none" stroke="blue" d="M103.87,-34.4469C133.361,-34.4469 176.064,-34.4469 208.051,-34.4469"/>
<polygon fill="blue" stroke="blue" points="208.453,-37.947 218.453,-34.4469 208.453,-30.947 208.453,-37.947"/>
<text text-anchor="middle" x="161.053" y="-38.2469" font-family="Times,serif" font-size="14.00">(1) credentials</text>
</g>
<!-- atlas&#45;&gt;web_app -->
<g id="edge2" class="edge"><title>atlas&#45;&gt;web_app</title>
<path fill="none" stroke="green" d="M221.206,-21.0757C214.519,-18.7405 207.395,-16.67 200.553,-15.4469 165.99,-9.26856 156.127,-9.32838 121.553,-15.4469 118.894,-15.9175 116.193,-16.5136 113.49,-17.202"/>
<polygon fill="green" stroke="green" points="112.389,-13.8772 103.771,-20.0396 114.351,-20.5966 112.389,-13.8772"/>
<text text-anchor="middle" x="161.053" y="-19.2469" font-family="Times,serif" font-size="14.00">(2) token</text>
</g>
</g>
</svg>
