<?xml version="1.0" encoding="UTF-8" standalone="no"?>
<!DOCTYPE svg PUBLIC "-//W3C//DTD SVG 1.1//EN"
 "http://www.w3.org/Graphics/SVG/1.1/DTD/svg11.dtd">
<!-- Generated by graphviz version 2.38.0 (20140413.2041)
 -->
<!-- Title: g Pages: 1 -->
<svg width="841pt" height="137pt"
 viewBox="0.00 0.00 841.16 137.45" xmlns="http://www.w3.org/2000/svg" xmlns:xlink="http://www.w3.org/1999/xlink">
<g id="graph0" class="graph" transform="scale(1 1) rotate(0) translate(4 133.447)">
<title>g</title>
<polygon fill="none" stroke="none" points="-4,4 -4,-133.447 837.156,-133.447 837.156,4 -4,4"/>
<text text-anchor="middle" x="416.578" y="-107.847" font-family="Times,serif" font-size="22.00">Simple Credentials Authentication with Cookie</text>
<!-- web_app -->
<g id="node1" class="node"><title>web_app</title>
<polygon fill="white" stroke="black" points="101,-64.4469 31,-64.4469 31,-28.4469 101,-28.4469 101,-64.4469"/>
<text text-anchor="middle" x="66" y="-42.7469" font-family="Times,serif" font-size="14.00">Web App</text>
</g>
<!-- web_app&#45;&gt;web_app -->
<g id="edge5" class="edge"><title>web_app&#45;&gt;web_app</title>
<path fill="none" stroke="blue" d="M40.311,-64.5997C36.3589,-73.986 44.9219,-82.4469 66,-82.4469 78.8445,-82.4469 87.0416,-79.3051 90.5914,-74.7265"/>
<polygon fill="blue" stroke="blue" points="94.091,-74.9186 91.689,-64.5997 87.1318,-74.1643 94.091,-74.9186"/>
<text text-anchor="middle" x="66" y="-86.2469" font-family="Times,serif" font-size="14.00">(4) save token to cookie</text>
</g>
<!-- have_token -->
<g id="node2" class="node"><title>have_token</title>
<polygon fill="white" stroke="black" points="455.631,-82.4469 314.869,-64.4469 455.631,-46.4469 596.393,-64.4469 455.631,-82.4469"/>
<text text-anchor="middle" x="455.631" y="-60.7469" font-family="Times,serif" font-size="14.00">have cookie with token ?</text>
</g>
<!-- web_app&#45;&gt;have_token -->
<g id="edge1" class="edge"><title>web_app&#45;&gt;have_token</title>
<path fill="none" stroke="blue" d="M101.073,-58.4782C106.982,-60.1174 113.118,-61.5446 119,-62.4469 197.752,-74.5288 288.125,-74.2752 355.24,-71.4165"/>
<polygon fill="blue" stroke="blue" points="355.556,-74.9058 365.388,-70.9569 355.24,-67.913 355.556,-74.9058"/>
<text text-anchor="middle" x="208" y="-76.2469" font-family="Times,serif" font-size="14.00">(1) check cookie</text>
</g>
<!-- have_token&#45;&gt;web_app -->
<g id="edge2" class="edge"><title>have_token&#45;&gt;web_app</title>
<path fill="none" stroke="green" d="M393.436,-54.3761C364.316,-50.0766 328.955,-45.5662 297,-43.4469 218.062,-38.2119 198.078,-41.1677 119,-43.4469 116.469,-43.5199 113.87,-43.6128 111.247,-43.7203"/>
<polygon fill="green" stroke="green" points="110.937,-40.231 101.113,-44.1971 111.266,-47.2232 110.937,-40.231"/>
<text text-anchor="middle" x="208" y="-47.2469" font-family="Times,serif" font-size="14.00">(2.1) yes; use token from cookie</text>
</g>
<!-- credio -->
<g id="node3" class="node"><title>credio</title>
<ellipse fill="white" stroke="black" cx="798.709" cy="-34.4469" rx="34.394" ry="34.394"/>
<text text-anchor="middle" x="798.709" y="-30.7469" font-family="Times,serif" font-size="14.00">Credio</text>
</g>
<!-- have_token&#45;&gt;credio -->
<g id="edge3" class="edge"><title>have_token&#45;&gt;credio</title>
<path fill="none" stroke="red" d="M539.632,-57.1465C607.292,-51.1954 700.173,-43.0258 754.083,-38.2841"/>
<polygon fill="red" stroke="red" points="754.672,-41.7459 764.327,-37.3831 754.059,-34.7729 754.672,-41.7459"/>
<text text-anchor="middle" x="680.262" y="-53.2469" font-family="Times,serif" font-size="14.00">(2.2) no; use credentials</text>
</g>
<!-- credio&#45;&gt;web_app -->
<g id="edge4" class="edge"><title>credio&#45;&gt;web_app</title>
<path fill="none" stroke="green" d="M764.231,-31.8414C724.28,-28.8737 655.446,-24.2081 596.262,-22.4469 384.148,-16.1348 329.399,-8.80126 119,-36.4469 116.357,-36.7943 113.645,-37.1912 110.914,-37.6221"/>
<polygon fill="green" stroke="green" points="110.303,-34.1758 101.031,-39.3029 111.476,-41.0767 110.303,-34.1758"/>
<text text-anchor="middle" x="455.631" y="-26.2469" font-family="Times,serif" font-size="14.00">(3) token</text>
</g>
</g>
</svg>
